<mxfile host="app.diagrams.net" modified="2023-04-28T02:32:12.040Z" agent="Mozilla/5.0 (Windows NT 10.0; Win64; x64) AppleWebKit/537.36 (KHTML, like Gecko) Chrome/112.0.0.0 Safari/537.36" etag="mJRHBELvd7iClkyWkShA" version="21.2.2" type="google" pages="11">
  <diagram name="全体" id="-faYMM-bjddrDhGqOA6a">
    <mxGraphModel grid="1" page="1" gridSize="10" guides="1" tooltips="1" connect="1" arrows="1" fold="1" pageScale="1" pageWidth="827" pageHeight="1169" math="0" shadow="0">
      <root>
        <mxCell id="0" />
        <mxCell id="1" parent="0" />
        <mxCell id="dcwC7q-7grM_1TfUEqK0-8" style="edgeStyle=orthogonalEdgeStyle;rounded=0;orthogonalLoop=1;jettySize=auto;html=1;entryX=0;entryY=0.5;entryDx=0;entryDy=0;" edge="1" parent="1" source="dcwC7q-7grM_1TfUEqK0-1" target="dcwC7q-7grM_1TfUEqK0-2">
          <mxGeometry relative="1" as="geometry" />
        </mxCell>
        <mxCell id="2iI-pu9JCkheTV_aaqar-16" style="edgeStyle=orthogonalEdgeStyle;rounded=0;orthogonalLoop=1;jettySize=auto;html=1;entryX=0;entryY=0.5;entryDx=0;entryDy=0;" edge="1" parent="1" source="dcwC7q-7grM_1TfUEqK0-1" target="2iI-pu9JCkheTV_aaqar-15">
          <mxGeometry relative="1" as="geometry" />
        </mxCell>
        <mxCell id="2iI-pu9JCkheTV_aaqar-18" style="edgeStyle=orthogonalEdgeStyle;rounded=0;orthogonalLoop=1;jettySize=auto;html=1;entryX=0;entryY=0.5;entryDx=0;entryDy=0;" edge="1" parent="1" source="dcwC7q-7grM_1TfUEqK0-1" target="dcwC7q-7grM_1TfUEqK0-10">
          <mxGeometry relative="1" as="geometry" />
        </mxCell>
        <mxCell id="ql9g4VKisxn5Lrbvvxom-2" style="edgeStyle=orthogonalEdgeStyle;rounded=0;orthogonalLoop=1;jettySize=auto;html=1;entryX=0;entryY=0.5;entryDx=0;entryDy=0;" edge="1" parent="1" source="dcwC7q-7grM_1TfUEqK0-1" target="ql9g4VKisxn5Lrbvvxom-1">
          <mxGeometry relative="1" as="geometry" />
        </mxCell>
        <mxCell id="ql9g4VKisxn5Lrbvvxom-5" style="edgeStyle=orthogonalEdgeStyle;rounded=0;orthogonalLoop=1;jettySize=auto;html=1;entryX=0;entryY=0.5;entryDx=0;entryDy=0;" edge="1" parent="1" source="dcwC7q-7grM_1TfUEqK0-1" target="ql9g4VKisxn5Lrbvvxom-3">
          <mxGeometry relative="1" as="geometry" />
        </mxCell>
        <mxCell id="ql9g4VKisxn5Lrbvvxom-6" style="edgeStyle=orthogonalEdgeStyle;rounded=0;orthogonalLoop=1;jettySize=auto;html=1;entryX=0;entryY=0.5;entryDx=0;entryDy=0;" edge="1" parent="1" source="dcwC7q-7grM_1TfUEqK0-1" target="ql9g4VKisxn5Lrbvvxom-4">
          <mxGeometry relative="1" as="geometry" />
        </mxCell>
        <mxCell id="dcwC7q-7grM_1TfUEqK0-1" value="管理者" style="shape=umlActor;verticalLabelPosition=bottom;verticalAlign=top;html=1;outlineConnect=0;" vertex="1" parent="1">
          <mxGeometry x="250" y="240" width="30" height="60" as="geometry" />
        </mxCell>
        <mxCell id="dcwC7q-7grM_1TfUEqK0-2" value="教員管理" style="ellipse;whiteSpace=wrap;html=1;" vertex="1" parent="1">
          <mxGeometry x="630" y="150" width="120" height="80" as="geometry" />
        </mxCell>
        <mxCell id="dcwC7q-7grM_1TfUEqK0-4" value="クラス管理" style="ellipse;whiteSpace=wrap;html=1;" vertex="1" parent="1">
          <mxGeometry x="630" y="450" width="120" height="80" as="geometry" />
        </mxCell>
        <mxCell id="dcwC7q-7grM_1TfUEqK0-10" value="カレンダー管理" style="ellipse;whiteSpace=wrap;html=1;" vertex="1" parent="1">
          <mxGeometry x="630" y="40" width="120" height="80" as="geometry" />
        </mxCell>
        <mxCell id="2iI-pu9JCkheTV_aaqar-1" value="教室管理" style="ellipse;whiteSpace=wrap;html=1;" vertex="1" parent="1">
          <mxGeometry x="630" y="670" width="120" height="80" as="geometry" />
        </mxCell>
        <mxCell id="2iI-pu9JCkheTV_aaqar-19" style="edgeStyle=orthogonalEdgeStyle;rounded=0;orthogonalLoop=1;jettySize=auto;html=1;entryX=0;entryY=0.5;entryDx=0;entryDy=0;" edge="1" parent="1" source="2iI-pu9JCkheTV_aaqar-3" target="2iI-pu9JCkheTV_aaqar-5">
          <mxGeometry relative="1" as="geometry" />
        </mxCell>
        <mxCell id="2iI-pu9JCkheTV_aaqar-20" style="edgeStyle=orthogonalEdgeStyle;rounded=0;orthogonalLoop=1;jettySize=auto;html=1;entryX=0;entryY=0.5;entryDx=0;entryDy=0;" edge="1" parent="1" source="2iI-pu9JCkheTV_aaqar-3" target="dcwC7q-7grM_1TfUEqK0-4">
          <mxGeometry relative="1" as="geometry" />
        </mxCell>
        <mxCell id="2iI-pu9JCkheTV_aaqar-21" style="edgeStyle=orthogonalEdgeStyle;rounded=0;orthogonalLoop=1;jettySize=auto;html=1;entryX=0;entryY=0.5;entryDx=0;entryDy=0;" edge="1" parent="1" source="2iI-pu9JCkheTV_aaqar-3" target="2iI-pu9JCkheTV_aaqar-1">
          <mxGeometry relative="1" as="geometry" />
        </mxCell>
        <mxCell id="2iI-pu9JCkheTV_aaqar-23" style="edgeStyle=orthogonalEdgeStyle;rounded=0;orthogonalLoop=1;jettySize=auto;html=1;entryX=0.5;entryY=1;entryDx=0;entryDy=0;" edge="1" parent="1" source="2iI-pu9JCkheTV_aaqar-3" target="2iI-pu9JCkheTV_aaqar-15">
          <mxGeometry relative="1" as="geometry">
            <Array as="points">
              <mxPoint x="405" y="430" />
              <mxPoint x="690" y="430" />
            </Array>
          </mxGeometry>
        </mxCell>
        <mxCell id="2iI-pu9JCkheTV_aaqar-3" value="権限あり教員" style="shape=umlActor;verticalLabelPosition=bottom;verticalAlign=top;html=1;outlineConnect=0;" vertex="1" parent="1">
          <mxGeometry x="260" y="430" width="30" height="60" as="geometry" />
        </mxCell>
        <mxCell id="2iI-pu9JCkheTV_aaqar-5" value="科目管理" style="ellipse;whiteSpace=wrap;html=1;" vertex="1" parent="1">
          <mxGeometry x="630" y="570" width="120" height="80" as="geometry" />
        </mxCell>
        <mxCell id="2iI-pu9JCkheTV_aaqar-15" value="ログイン" style="ellipse;whiteSpace=wrap;html=1;" vertex="1" parent="1">
          <mxGeometry x="630" y="270" width="120" height="80" as="geometry" />
        </mxCell>
        <mxCell id="j-YCnpMbDq6suRuCPo4U-2" style="edgeStyle=orthogonalEdgeStyle;rounded=0;orthogonalLoop=1;jettySize=auto;html=1;entryX=0.062;entryY=0.292;entryDx=0;entryDy=0;entryPerimeter=0;" edge="1" parent="1" source="j-YCnpMbDq6suRuCPo4U-1" target="2iI-pu9JCkheTV_aaqar-1">
          <mxGeometry relative="1" as="geometry" />
        </mxCell>
        <mxCell id="j-YCnpMbDq6suRuCPo4U-3" style="edgeStyle=orthogonalEdgeStyle;rounded=0;orthogonalLoop=1;jettySize=auto;html=1;entryX=0.022;entryY=0.649;entryDx=0;entryDy=0;entryPerimeter=0;" edge="1" parent="1" source="j-YCnpMbDq6suRuCPo4U-1" target="2iI-pu9JCkheTV_aaqar-5">
          <mxGeometry relative="1" as="geometry" />
        </mxCell>
        <mxCell id="j-YCnpMbDq6suRuCPo4U-4" style="edgeStyle=orthogonalEdgeStyle;rounded=0;orthogonalLoop=1;jettySize=auto;html=1;entryX=0;entryY=0.75;entryDx=0;entryDy=0;entryPerimeter=0;" edge="1" parent="1" source="j-YCnpMbDq6suRuCPo4U-1" target="2iI-pu9JCkheTV_aaqar-15">
          <mxGeometry relative="1" as="geometry" />
        </mxCell>
        <mxCell id="j-YCnpMbDq6suRuCPo4U-1" value="権限なし教員" style="shape=umlActor;verticalLabelPosition=bottom;verticalAlign=top;html=1;outlineConnect=0;" vertex="1" parent="1">
          <mxGeometry x="190" y="650" width="30" height="60" as="geometry" />
        </mxCell>
        <mxCell id="ql9g4VKisxn5Lrbvvxom-1" value="科目項目管理" style="ellipse;whiteSpace=wrap;html=1;" vertex="1" parent="1">
          <mxGeometry x="630" y="-60" width="120" height="80" as="geometry" />
        </mxCell>
        <mxCell id="ql9g4VKisxn5Lrbvvxom-3" value="教室項目管理" style="ellipse;whiteSpace=wrap;html=1;" vertex="1" parent="1">
          <mxGeometry x="630" y="-160" width="120" height="80" as="geometry" />
        </mxCell>
        <mxCell id="ql9g4VKisxn5Lrbvvxom-4" value="クラス項目管理" style="ellipse;whiteSpace=wrap;html=1;" vertex="1" parent="1">
          <mxGeometry x="630" y="-260" width="120" height="80" as="geometry" />
        </mxCell>
      </root>
    </mxGraphModel>
  </diagram>
  <diagram id="fSBzvBmipC3hM2FKQoVy" name="教員管理">
    <mxGraphModel grid="1" page="1" gridSize="10" guides="1" tooltips="1" connect="1" arrows="1" fold="1" pageScale="1" pageWidth="827" pageHeight="1169" math="0" shadow="0">
      <root>
        <mxCell id="0" />
        <mxCell id="1" parent="0" />
        <mxCell id="yDUalTuNj7ugO9hE7QNY-1" style="edgeStyle=orthogonalEdgeStyle;rounded=0;orthogonalLoop=1;jettySize=auto;html=1;" edge="1" parent="1" source="yDUalTuNj7ugO9hE7QNY-4" target="yDUalTuNj7ugO9hE7QNY-5">
          <mxGeometry relative="1" as="geometry" />
        </mxCell>
        <mxCell id="yDUalTuNj7ugO9hE7QNY-2" style="edgeStyle=orthogonalEdgeStyle;rounded=0;orthogonalLoop=1;jettySize=auto;html=1;entryX=0;entryY=0.5;entryDx=0;entryDy=0;" edge="1" parent="1" source="yDUalTuNj7ugO9hE7QNY-4" target="yDUalTuNj7ugO9hE7QNY-8">
          <mxGeometry relative="1" as="geometry" />
        </mxCell>
        <mxCell id="yDUalTuNj7ugO9hE7QNY-3" style="edgeStyle=orthogonalEdgeStyle;rounded=0;orthogonalLoop=1;jettySize=auto;html=1;entryX=0;entryY=0.5;entryDx=0;entryDy=0;" edge="1" parent="1" source="yDUalTuNj7ugO9hE7QNY-4" target="yDUalTuNj7ugO9hE7QNY-9">
          <mxGeometry relative="1" as="geometry" />
        </mxCell>
        <mxCell id="yDUalTuNj7ugO9hE7QNY-4" value="管理者" style="shape=umlActor;verticalLabelPosition=bottom;verticalAlign=top;html=1;outlineConnect=0;" vertex="1" parent="1">
          <mxGeometry x="250" y="100" width="30" height="60" as="geometry" />
        </mxCell>
        <mxCell id="yDUalTuNj7ugO9hE7QNY-5" value="登録" style="ellipse;whiteSpace=wrap;html=1;" vertex="1" parent="1">
          <mxGeometry x="510" y="90" width="120" height="80" as="geometry" />
        </mxCell>
        <mxCell id="yDUalTuNj7ugO9hE7QNY-6" value="教員管理" style="shape=umlFrame;whiteSpace=wrap;html=1;pointerEvents=0;width=110;height=40;" vertex="1" parent="1">
          <mxGeometry x="400" y="70" width="340" height="360" as="geometry" />
        </mxCell>
        <mxCell id="yDUalTuNj7ugO9hE7QNY-7" style="edgeStyle=orthogonalEdgeStyle;rounded=0;orthogonalLoop=1;jettySize=auto;html=1;exitX=0.5;exitY=1;exitDx=0;exitDy=0;" edge="1" parent="1" source="yDUalTuNj7ugO9hE7QNY-5" target="yDUalTuNj7ugO9hE7QNY-5">
          <mxGeometry relative="1" as="geometry" />
        </mxCell>
        <mxCell id="yDUalTuNj7ugO9hE7QNY-8" value="変更" style="ellipse;whiteSpace=wrap;html=1;" vertex="1" parent="1">
          <mxGeometry x="510" y="200" width="120" height="80" as="geometry" />
        </mxCell>
        <mxCell id="yDUalTuNj7ugO9hE7QNY-9" value="削除" style="ellipse;whiteSpace=wrap;html=1;" vertex="1" parent="1">
          <mxGeometry x="510" y="300" width="120" height="80" as="geometry" />
        </mxCell>
      </root>
    </mxGraphModel>
  </diagram>
  <diagram name="教員管理シナリオ" id="N8VgyFikyCtZJqOLAU0v">
    <mxGraphModel grid="1" page="1" gridSize="10" guides="1" tooltips="1" connect="1" arrows="1" fold="1" pageScale="1" pageWidth="827" pageHeight="1169" math="0" shadow="0">
      <root>
        <mxCell id="bHqfQyuv9eQbu5IpitKj-0" />
        <mxCell id="bHqfQyuv9eQbu5IpitKj-1" parent="bHqfQyuv9eQbu5IpitKj-0" />
        <mxCell id="6n04Pgy-7NsPMbrPOmwd-0" value="&lt;b&gt;教員管理：登録&lt;/b&gt;" style="shape=umlFrame;whiteSpace=wrap;html=1;pointerEvents=0;width=140;height=40;" vertex="1" parent="bHqfQyuv9eQbu5IpitKj-1">
          <mxGeometry x="180" y="160" width="420" height="310" as="geometry" />
        </mxCell>
        <mxCell id="6n04Pgy-7NsPMbrPOmwd-1" value="&lt;div style=&quot;text-align: left;&quot;&gt;&lt;span style=&quot;background-color: initial;&quot;&gt;1 管理者は項目を入力する。&lt;/span&gt;&lt;span style=&quot;background-color: initial;&quot;&gt;※権限レベルの項目が必要。&lt;/span&gt;&lt;/div&gt;&lt;div style=&quot;text-align: right;&quot;&gt;&lt;span style=&quot;background-color: initial;&quot;&gt;　なぜならクラス管理機能は権限レベルが一定以上の教員が管理するため&lt;/span&gt;&lt;/div&gt;&lt;div style=&quot;text-align: right;&quot;&gt;&lt;span style=&quot;background-color: initial;&quot;&gt;&lt;br&gt;&lt;/span&gt;&lt;/div&gt;&lt;div style=&quot;text-align: left;&quot;&gt;&lt;span style=&quot;background-color: initial;&quot;&gt;2 空の項目がないかチェックする&lt;/span&gt;&lt;/div&gt;&lt;div style=&quot;text-align: left;&quot;&gt;&lt;span style=&quot;background-color: initial;&quot;&gt;&lt;br&gt;&lt;/span&gt;&lt;/div&gt;&lt;div style=&quot;text-align: left;&quot;&gt;&lt;span style=&quot;background-color: initial;&quot;&gt;3 登録処理を行う&lt;/span&gt;&lt;/div&gt;" style="text;html=1;align=center;verticalAlign=middle;resizable=0;points=[];autosize=1;strokeColor=none;fillColor=none;" vertex="1" parent="bHqfQyuv9eQbu5IpitKj-1">
          <mxGeometry x="190" y="240" width="420" height="100" as="geometry" />
        </mxCell>
        <mxCell id="3H3GdSmHDbEZlfH3CDN1-3" value="&lt;b&gt;主シナリオ&lt;/b&gt;" style="text;html=1;align=center;verticalAlign=middle;resizable=0;points=[];autosize=1;strokeColor=none;fillColor=none;" vertex="1" parent="bHqfQyuv9eQbu5IpitKj-1">
          <mxGeometry x="190" y="210" width="80" height="30" as="geometry" />
        </mxCell>
        <mxCell id="3H3GdSmHDbEZlfH3CDN1-4" value="&lt;b&gt;副シナリオ&lt;/b&gt;" style="text;html=1;align=center;verticalAlign=middle;resizable=0;points=[];autosize=1;strokeColor=none;fillColor=none;" vertex="1" parent="bHqfQyuv9eQbu5IpitKj-1">
          <mxGeometry x="190" y="360" width="80" height="30" as="geometry" />
        </mxCell>
        <mxCell id="3H3GdSmHDbEZlfH3CDN1-5" value="&lt;div style=&quot;text-align: left;&quot;&gt;&lt;span style=&quot;background-color: initial;&quot;&gt;2a 空の項目があったら&lt;/span&gt;&lt;/div&gt;&lt;div style=&quot;text-align: left;&quot;&gt;&lt;span style=&quot;background-color: initial;&quot;&gt;&lt;br&gt;&lt;/span&gt;&lt;/div&gt;2a1 エラーメッセージ(どの項目が空なのか)&lt;br&gt;&lt;div style=&quot;text-align: left;&quot;&gt;&lt;span style=&quot;background-color: initial;&quot;&gt;&lt;span style=&quot;white-space: pre;&quot;&gt; &lt;/span&gt;を出力し1に戻る&amp;nbsp;&lt;/span&gt;&lt;/div&gt;" style="text;html=1;align=center;verticalAlign=middle;resizable=0;points=[];autosize=1;strokeColor=none;fillColor=none;" vertex="1" parent="bHqfQyuv9eQbu5IpitKj-1">
          <mxGeometry x="200" y="385" width="260" height="70" as="geometry" />
        </mxCell>
        <mxCell id="1sjCMGNJnwahxEqvZPkA-7" value="&lt;b&gt;教員管理：変更&lt;/b&gt;" style="shape=umlFrame;whiteSpace=wrap;html=1;pointerEvents=0;width=140;height=40;" vertex="1" parent="bHqfQyuv9eQbu5IpitKj-1">
          <mxGeometry x="180" y="520" width="420" height="310" as="geometry" />
        </mxCell>
        <mxCell id="1sjCMGNJnwahxEqvZPkA-8" value="&lt;div style=&quot;text-align: left;&quot;&gt;&lt;span style=&quot;background-color: initial;&quot;&gt;1 管理者は教員を選択する&lt;/span&gt;&lt;/div&gt;&lt;div style=&quot;text-align: left;&quot;&gt;&lt;br&gt;&lt;/div&gt;&lt;div style=&quot;text-align: left;&quot;&gt;2項目を変更する&lt;/div&gt;&lt;div style=&quot;text-align: left;&quot;&gt;&lt;br&gt;&lt;/div&gt;&lt;div style=&quot;text-align: left;&quot;&gt;&lt;span style=&quot;background-color: initial;&quot;&gt;3 変更処理を行う&lt;/span&gt;&lt;/div&gt;" style="text;html=1;align=center;verticalAlign=middle;resizable=0;points=[];autosize=1;strokeColor=none;fillColor=none;" vertex="1" parent="bHqfQyuv9eQbu5IpitKj-1">
          <mxGeometry x="180" y="590" width="170" height="90" as="geometry" />
        </mxCell>
        <mxCell id="1sjCMGNJnwahxEqvZPkA-9" value="&lt;b&gt;主シナリオ&lt;/b&gt;" style="text;html=1;align=center;verticalAlign=middle;resizable=0;points=[];autosize=1;strokeColor=none;fillColor=none;" vertex="1" parent="bHqfQyuv9eQbu5IpitKj-1">
          <mxGeometry x="180" y="560" width="80" height="30" as="geometry" />
        </mxCell>
        <mxCell id="1sjCMGNJnwahxEqvZPkA-10" value="&lt;b&gt;副シナリオ&lt;/b&gt;" style="text;html=1;align=center;verticalAlign=middle;resizable=0;points=[];autosize=1;strokeColor=none;fillColor=none;" vertex="1" parent="bHqfQyuv9eQbu5IpitKj-1">
          <mxGeometry x="190" y="720" width="80" height="30" as="geometry" />
        </mxCell>
        <mxCell id="1sjCMGNJnwahxEqvZPkA-11" value="&lt;div style=&quot;text-align: left;&quot;&gt;&lt;span style=&quot;background-color: initial;&quot;&gt;2a 空の項目があったら&lt;/span&gt;&lt;/div&gt;&lt;div style=&quot;text-align: left;&quot;&gt;&lt;span style=&quot;background-color: initial;&quot;&gt;&lt;br&gt;&lt;/span&gt;&lt;/div&gt;2a1 エラーメッセージ(どの項目が空なのか)&lt;br&gt;&lt;div style=&quot;text-align: left;&quot;&gt;&lt;span style=&quot;background-color: initial;&quot;&gt;&lt;span style=&quot;white-space: pre;&quot;&gt; &lt;/span&gt;を出力し1に戻る&amp;nbsp;&lt;/span&gt;&lt;/div&gt;" style="text;html=1;align=center;verticalAlign=middle;resizable=0;points=[];autosize=1;strokeColor=none;fillColor=none;" vertex="1" parent="bHqfQyuv9eQbu5IpitKj-1">
          <mxGeometry x="200" y="745" width="260" height="70" as="geometry" />
        </mxCell>
        <mxCell id="x6PWu1GvOpwN6pScB9BZ-0" value="&lt;b&gt;教員管理：削除&lt;/b&gt;" style="shape=umlFrame;whiteSpace=wrap;html=1;pointerEvents=0;width=140;height=40;" vertex="1" parent="bHqfQyuv9eQbu5IpitKj-1">
          <mxGeometry x="180" y="870" width="420" height="310" as="geometry" />
        </mxCell>
        <mxCell id="x6PWu1GvOpwN6pScB9BZ-1" value="&lt;div style=&quot;text-align: left;&quot;&gt;&lt;span style=&quot;background-color: initial;&quot;&gt;1 管理者は教員を選択する&lt;/span&gt;&lt;/div&gt;&lt;div style=&quot;text-align: right;&quot;&gt;&lt;span style=&quot;background-color: initial;&quot;&gt;&lt;br&gt;&lt;/span&gt;&lt;/div&gt;&lt;div style=&quot;text-align: left;&quot;&gt;&lt;span style=&quot;background-color: initial;&quot;&gt;2 削除ボタンを押す&lt;/span&gt;&lt;/div&gt;&lt;div style=&quot;text-align: left;&quot;&gt;&lt;span style=&quot;background-color: initial;&quot;&gt;&lt;br&gt;&lt;/span&gt;&lt;/div&gt;&lt;div style=&quot;text-align: left;&quot;&gt;&lt;span style=&quot;background-color: initial;&quot;&gt;3 削除処理を行う&lt;/span&gt;&lt;/div&gt;" style="text;html=1;align=center;verticalAlign=middle;resizable=0;points=[];autosize=1;strokeColor=none;fillColor=none;" vertex="1" parent="bHqfQyuv9eQbu5IpitKj-1">
          <mxGeometry x="190" y="950" width="170" height="90" as="geometry" />
        </mxCell>
        <mxCell id="x6PWu1GvOpwN6pScB9BZ-2" value="&lt;b&gt;主シナリオ&lt;/b&gt;" style="text;html=1;align=center;verticalAlign=middle;resizable=0;points=[];autosize=1;strokeColor=none;fillColor=none;" vertex="1" parent="bHqfQyuv9eQbu5IpitKj-1">
          <mxGeometry x="190" y="920" width="80" height="30" as="geometry" />
        </mxCell>
        <mxCell id="x6PWu1GvOpwN6pScB9BZ-3" value="&lt;b&gt;副シナリオ&lt;/b&gt;" style="text;html=1;align=center;verticalAlign=middle;resizable=0;points=[];autosize=1;strokeColor=none;fillColor=none;" vertex="1" parent="bHqfQyuv9eQbu5IpitKj-1">
          <mxGeometry x="190" y="1070" width="80" height="30" as="geometry" />
        </mxCell>
        <mxCell id="x6PWu1GvOpwN6pScB9BZ-4" value="&lt;div style=&quot;text-align: left;&quot;&gt;&lt;span style=&quot;background-color: initial;&quot;&gt;2a 教員が選択されていなかったら&lt;/span&gt;&lt;/div&gt;&lt;div style=&quot;text-align: left;&quot;&gt;&lt;span style=&quot;background-color: initial;&quot;&gt;&lt;br&gt;&lt;/span&gt;&lt;/div&gt;&lt;div style=&quot;text-align: left;&quot;&gt;&lt;span style=&quot;background-color: initial;&quot;&gt;2a1 教員を選択するように促す&lt;/span&gt;&lt;span style=&quot;background-color: initial; text-align: left;&quot;&gt;&amp;nbsp;&lt;/span&gt;&lt;/div&gt;" style="text;html=1;align=center;verticalAlign=middle;resizable=0;points=[];autosize=1;strokeColor=none;fillColor=none;" vertex="1" parent="bHqfQyuv9eQbu5IpitKj-1">
          <mxGeometry x="200" y="1100" width="210" height="60" as="geometry" />
        </mxCell>
      </root>
    </mxGraphModel>
  </diagram>
  <diagram id="SoRs1tKrXnFxz9QYPbP3" name="カレンダー管理">
    <mxGraphModel grid="1" page="1" gridSize="10" guides="1" tooltips="1" connect="1" arrows="1" fold="1" pageScale="1" pageWidth="827" pageHeight="1169" math="0" shadow="0">
      <root>
        <mxCell id="0" />
        <mxCell id="1" parent="0" />
        <mxCell id="IsO2h64r1h5ArCaIcuZx-2" style="edgeStyle=orthogonalEdgeStyle;rounded=0;orthogonalLoop=1;jettySize=auto;html=1;" edge="1" parent="1" source="2otTbO5ECsQRAJrvAbPR-1" target="IsO2h64r1h5ArCaIcuZx-1">
          <mxGeometry relative="1" as="geometry" />
        </mxCell>
        <mxCell id="IsO2h64r1h5ArCaIcuZx-7" style="edgeStyle=orthogonalEdgeStyle;rounded=0;orthogonalLoop=1;jettySize=auto;html=1;entryX=0;entryY=0.5;entryDx=0;entryDy=0;" edge="1" parent="1" source="2otTbO5ECsQRAJrvAbPR-1" target="IsO2h64r1h5ArCaIcuZx-5">
          <mxGeometry relative="1" as="geometry" />
        </mxCell>
        <mxCell id="IsO2h64r1h5ArCaIcuZx-10" style="edgeStyle=orthogonalEdgeStyle;rounded=0;orthogonalLoop=1;jettySize=auto;html=1;entryX=0;entryY=0.5;entryDx=0;entryDy=0;" edge="1" parent="1" source="2otTbO5ECsQRAJrvAbPR-1" target="IsO2h64r1h5ArCaIcuZx-9">
          <mxGeometry relative="1" as="geometry" />
        </mxCell>
        <mxCell id="2otTbO5ECsQRAJrvAbPR-1" value="管理者" style="shape=umlActor;verticalLabelPosition=bottom;verticalAlign=top;html=1;outlineConnect=0;" vertex="1" parent="1">
          <mxGeometry x="250" y="100" width="30" height="60" as="geometry" />
        </mxCell>
        <mxCell id="IsO2h64r1h5ArCaIcuZx-1" value="登録" style="ellipse;whiteSpace=wrap;html=1;" vertex="1" parent="1">
          <mxGeometry x="510" y="90" width="120" height="80" as="geometry" />
        </mxCell>
        <mxCell id="IsO2h64r1h5ArCaIcuZx-3" value="カレンダー管理" style="shape=umlFrame;whiteSpace=wrap;html=1;pointerEvents=0;width=110;height=40;" vertex="1" parent="1">
          <mxGeometry x="400" y="70" width="340" height="360" as="geometry" />
        </mxCell>
        <mxCell id="IsO2h64r1h5ArCaIcuZx-4" style="edgeStyle=orthogonalEdgeStyle;rounded=0;orthogonalLoop=1;jettySize=auto;html=1;exitX=0.5;exitY=1;exitDx=0;exitDy=0;" edge="1" parent="1" source="IsO2h64r1h5ArCaIcuZx-1" target="IsO2h64r1h5ArCaIcuZx-1">
          <mxGeometry relative="1" as="geometry" />
        </mxCell>
        <mxCell id="IsO2h64r1h5ArCaIcuZx-5" value="変更" style="ellipse;whiteSpace=wrap;html=1;" vertex="1" parent="1">
          <mxGeometry x="510" y="180" width="120" height="80" as="geometry" />
        </mxCell>
        <mxCell id="IsO2h64r1h5ArCaIcuZx-9" value="削除" style="ellipse;whiteSpace=wrap;html=1;" vertex="1" parent="1">
          <mxGeometry x="510" y="300" width="120" height="80" as="geometry" />
        </mxCell>
      </root>
    </mxGraphModel>
  </diagram>
  <diagram name="カレンダー管理シナリオ" id="UaVxZ047Nu6gDASHdnxK">
    <mxGraphModel grid="1" page="1" gridSize="10" guides="1" tooltips="1" connect="1" arrows="1" fold="1" pageScale="1" pageWidth="827" pageHeight="1169" math="0" shadow="0">
      <root>
        <mxCell id="aOE7NkyAOQ7Kz2FR211e-0" />
        <mxCell id="aOE7NkyAOQ7Kz2FR211e-1" parent="aOE7NkyAOQ7Kz2FR211e-0" />
        <mxCell id="aOE7NkyAOQ7Kz2FR211e-2" value="管理者が年間カレンダーを管理できる機能" style="text;html=1;align=center;verticalAlign=middle;resizable=0;points=[];autosize=1;strokeColor=none;fillColor=none;" parent="aOE7NkyAOQ7Kz2FR211e-1" vertex="1">
          <mxGeometry x="320" y="160" width="250" height="30" as="geometry" />
        </mxCell>
        <mxCell id="aOE7NkyAOQ7Kz2FR211e-3" value="&lt;b&gt;カレンダー管理&lt;/b&gt;" style="shape=umlFrame;whiteSpace=wrap;html=1;pointerEvents=0;width=140;height=40;" parent="aOE7NkyAOQ7Kz2FR211e-1" vertex="1">
          <mxGeometry x="180" y="160" width="420" height="310" as="geometry" />
        </mxCell>
        <mxCell id="aOE7NkyAOQ7Kz2FR211e-4" value="&lt;div style=&quot;text-align: left;&quot;&gt;&lt;span style=&quot;background-color: initial;&quot;&gt;1 管理者は項目を入力する。&lt;/span&gt;&lt;span style=&quot;background-color: initial;&quot;&gt;※権限レベルの項目が必要。&lt;/span&gt;&lt;/div&gt;&lt;div style=&quot;text-align: right;&quot;&gt;&lt;span style=&quot;background-color: initial;&quot;&gt;　なぜならクラス管理機能は権限レベルが一定以上の教員が管理するため&lt;/span&gt;&lt;/div&gt;&lt;div style=&quot;text-align: right;&quot;&gt;&lt;span style=&quot;background-color: initial;&quot;&gt;&lt;br&gt;&lt;/span&gt;&lt;/div&gt;&lt;div style=&quot;text-align: left;&quot;&gt;&lt;span style=&quot;background-color: initial;&quot;&gt;2 空の項目がないかチェックする&lt;/span&gt;&lt;/div&gt;&lt;div style=&quot;text-align: left;&quot;&gt;&lt;span style=&quot;background-color: initial;&quot;&gt;&lt;br&gt;&lt;/span&gt;&lt;/div&gt;&lt;div style=&quot;text-align: left;&quot;&gt;&lt;span style=&quot;background-color: initial;&quot;&gt;3 登録処理を行う&lt;/span&gt;&lt;/div&gt;" style="text;html=1;align=center;verticalAlign=middle;resizable=0;points=[];autosize=1;strokeColor=none;fillColor=none;" parent="aOE7NkyAOQ7Kz2FR211e-1" vertex="1">
          <mxGeometry x="190" y="240" width="420" height="100" as="geometry" />
        </mxCell>
        <mxCell id="aOE7NkyAOQ7Kz2FR211e-5" value="&lt;b&gt;主シナリオ&lt;/b&gt;" style="text;html=1;align=center;verticalAlign=middle;resizable=0;points=[];autosize=1;strokeColor=none;fillColor=none;" parent="aOE7NkyAOQ7Kz2FR211e-1" vertex="1">
          <mxGeometry x="190" y="210" width="80" height="30" as="geometry" />
        </mxCell>
        <mxCell id="aOE7NkyAOQ7Kz2FR211e-6" value="&lt;b&gt;副シナリオ&lt;/b&gt;" style="text;html=1;align=center;verticalAlign=middle;resizable=0;points=[];autosize=1;strokeColor=none;fillColor=none;" parent="aOE7NkyAOQ7Kz2FR211e-1" vertex="1">
          <mxGeometry x="190" y="360" width="80" height="30" as="geometry" />
        </mxCell>
        <mxCell id="aOE7NkyAOQ7Kz2FR211e-7" value="&lt;div style=&quot;text-align: left;&quot;&gt;&lt;span style=&quot;background-color: initial;&quot;&gt;2a 空の項目があったら&lt;/span&gt;&lt;/div&gt;&lt;div style=&quot;text-align: left;&quot;&gt;&lt;span style=&quot;background-color: initial;&quot;&gt;&lt;br&gt;&lt;/span&gt;&lt;/div&gt;2a1 エラーメッセージ(どの項目が空なのか)&lt;br&gt;&lt;div style=&quot;text-align: left;&quot;&gt;&lt;span style=&quot;background-color: initial;&quot;&gt;&lt;span style=&quot;white-space: pre;&quot;&gt; &lt;/span&gt;を出力し1に戻る&amp;nbsp;&lt;/span&gt;&lt;/div&gt;" style="text;html=1;align=center;verticalAlign=middle;resizable=0;points=[];autosize=1;strokeColor=none;fillColor=none;" parent="aOE7NkyAOQ7Kz2FR211e-1" vertex="1">
          <mxGeometry x="200" y="385" width="260" height="70" as="geometry" />
        </mxCell>
      </root>
    </mxGraphModel>
  </diagram>
  <diagram name="クラス項目管理" id="QWZ_h_7PzFp0Y57ihyax">
    <mxGraphModel grid="1" page="1" gridSize="10" guides="1" tooltips="1" connect="1" arrows="1" fold="1" pageScale="1" pageWidth="827" pageHeight="1169" math="0" shadow="0">
      <root>
        <mxCell id="cWfLZFZTKvndyB38YzBA-0" />
        <mxCell id="cWfLZFZTKvndyB38YzBA-1" parent="cWfLZFZTKvndyB38YzBA-0" />
        <mxCell id="cWfLZFZTKvndyB38YzBA-2" style="edgeStyle=orthogonalEdgeStyle;rounded=0;orthogonalLoop=1;jettySize=auto;html=1;" parent="cWfLZFZTKvndyB38YzBA-1" source="cWfLZFZTKvndyB38YzBA-5" target="cWfLZFZTKvndyB38YzBA-6" edge="1">
          <mxGeometry relative="1" as="geometry" />
        </mxCell>
        <mxCell id="cWfLZFZTKvndyB38YzBA-3" style="edgeStyle=orthogonalEdgeStyle;rounded=0;orthogonalLoop=1;jettySize=auto;html=1;entryX=0;entryY=0.5;entryDx=0;entryDy=0;" parent="cWfLZFZTKvndyB38YzBA-1" source="cWfLZFZTKvndyB38YzBA-5" target="cWfLZFZTKvndyB38YzBA-9" edge="1">
          <mxGeometry relative="1" as="geometry" />
        </mxCell>
        <mxCell id="cWfLZFZTKvndyB38YzBA-4" style="edgeStyle=orthogonalEdgeStyle;rounded=0;orthogonalLoop=1;jettySize=auto;html=1;entryX=0;entryY=0.5;entryDx=0;entryDy=0;" parent="cWfLZFZTKvndyB38YzBA-1" source="cWfLZFZTKvndyB38YzBA-5" target="cWfLZFZTKvndyB38YzBA-10" edge="1">
          <mxGeometry relative="1" as="geometry" />
        </mxCell>
        <mxCell id="cWfLZFZTKvndyB38YzBA-5" value="管理者" style="shape=umlActor;verticalLabelPosition=bottom;verticalAlign=top;html=1;outlineConnect=0;" parent="cWfLZFZTKvndyB38YzBA-1" vertex="1">
          <mxGeometry x="250" y="100" width="30" height="60" as="geometry" />
        </mxCell>
        <mxCell id="cWfLZFZTKvndyB38YzBA-6" value="登録" style="ellipse;whiteSpace=wrap;html=1;" parent="cWfLZFZTKvndyB38YzBA-1" vertex="1">
          <mxGeometry x="510" y="90" width="120" height="80" as="geometry" />
        </mxCell>
        <mxCell id="cWfLZFZTKvndyB38YzBA-7" value="クラス項目管理" style="shape=umlFrame;whiteSpace=wrap;html=1;pointerEvents=0;width=110;height=40;" parent="cWfLZFZTKvndyB38YzBA-1" vertex="1">
          <mxGeometry x="400" y="70" width="340" height="360" as="geometry" />
        </mxCell>
        <mxCell id="cWfLZFZTKvndyB38YzBA-8" style="edgeStyle=orthogonalEdgeStyle;rounded=0;orthogonalLoop=1;jettySize=auto;html=1;exitX=0.5;exitY=1;exitDx=0;exitDy=0;" parent="cWfLZFZTKvndyB38YzBA-1" source="cWfLZFZTKvndyB38YzBA-6" target="cWfLZFZTKvndyB38YzBA-6" edge="1">
          <mxGeometry relative="1" as="geometry" />
        </mxCell>
        <mxCell id="cWfLZFZTKvndyB38YzBA-9" value="変更" style="ellipse;whiteSpace=wrap;html=1;" parent="cWfLZFZTKvndyB38YzBA-1" vertex="1">
          <mxGeometry x="510" y="200" width="120" height="80" as="geometry" />
        </mxCell>
        <mxCell id="cWfLZFZTKvndyB38YzBA-10" value="削除" style="ellipse;whiteSpace=wrap;html=1;" parent="cWfLZFZTKvndyB38YzBA-1" vertex="1">
          <mxGeometry x="510" y="300" width="120" height="80" as="geometry" />
        </mxCell>
      </root>
    </mxGraphModel>
  </diagram>
  <diagram id="6tUe27ccUF9_hhSGKtmf" name="クラス管理">
    <mxGraphModel grid="1" page="1" gridSize="10" guides="1" tooltips="1" connect="1" arrows="1" fold="1" pageScale="1" pageWidth="827" pageHeight="1169" math="0" shadow="0">
      <root>
        <mxCell id="0" />
        <mxCell id="1" parent="0" />
        <mxCell id="woH4PhkTo6S_7pMQFRbt-1" style="edgeStyle=orthogonalEdgeStyle;rounded=0;orthogonalLoop=1;jettySize=auto;html=1;" edge="1" parent="1" source="woH4PhkTo6S_7pMQFRbt-4" target="woH4PhkTo6S_7pMQFRbt-5">
          <mxGeometry relative="1" as="geometry" />
        </mxCell>
        <mxCell id="woH4PhkTo6S_7pMQFRbt-2" style="edgeStyle=orthogonalEdgeStyle;rounded=0;orthogonalLoop=1;jettySize=auto;html=1;entryX=0;entryY=0.5;entryDx=0;entryDy=0;" edge="1" parent="1" source="woH4PhkTo6S_7pMQFRbt-4" target="woH4PhkTo6S_7pMQFRbt-8">
          <mxGeometry relative="1" as="geometry" />
        </mxCell>
        <mxCell id="woH4PhkTo6S_7pMQFRbt-3" style="edgeStyle=orthogonalEdgeStyle;rounded=0;orthogonalLoop=1;jettySize=auto;html=1;entryX=0;entryY=0.5;entryDx=0;entryDy=0;" edge="1" parent="1" source="woH4PhkTo6S_7pMQFRbt-4" target="woH4PhkTo6S_7pMQFRbt-9">
          <mxGeometry relative="1" as="geometry" />
        </mxCell>
        <mxCell id="woH4PhkTo6S_7pMQFRbt-4" value="権限あり教員" style="shape=umlActor;verticalLabelPosition=bottom;verticalAlign=top;html=1;outlineConnect=0;" vertex="1" parent="1">
          <mxGeometry x="250" y="100" width="30" height="60" as="geometry" />
        </mxCell>
        <mxCell id="woH4PhkTo6S_7pMQFRbt-5" value="登録" style="ellipse;whiteSpace=wrap;html=1;" vertex="1" parent="1">
          <mxGeometry x="510" y="90" width="120" height="80" as="geometry" />
        </mxCell>
        <mxCell id="woH4PhkTo6S_7pMQFRbt-6" value="クラス管理" style="shape=umlFrame;whiteSpace=wrap;html=1;pointerEvents=0;width=110;height=40;" vertex="1" parent="1">
          <mxGeometry x="400" y="70" width="340" height="360" as="geometry" />
        </mxCell>
        <mxCell id="woH4PhkTo6S_7pMQFRbt-7" style="edgeStyle=orthogonalEdgeStyle;rounded=0;orthogonalLoop=1;jettySize=auto;html=1;exitX=0.5;exitY=1;exitDx=0;exitDy=0;" edge="1" parent="1" source="woH4PhkTo6S_7pMQFRbt-5" target="woH4PhkTo6S_7pMQFRbt-5">
          <mxGeometry relative="1" as="geometry" />
        </mxCell>
        <mxCell id="woH4PhkTo6S_7pMQFRbt-8" value="変更" style="ellipse;whiteSpace=wrap;html=1;" vertex="1" parent="1">
          <mxGeometry x="510" y="200" width="120" height="80" as="geometry" />
        </mxCell>
        <mxCell id="woH4PhkTo6S_7pMQFRbt-9" value="削除" style="ellipse;whiteSpace=wrap;html=1;" vertex="1" parent="1">
          <mxGeometry x="510" y="300" width="120" height="80" as="geometry" />
        </mxCell>
      </root>
    </mxGraphModel>
  </diagram>
  <diagram name="科目項目管理" id="JJlEsGutEqqS27ESPdUj">
    <mxGraphModel grid="1" page="1" gridSize="10" guides="1" tooltips="1" connect="1" arrows="1" fold="1" pageScale="1" pageWidth="827" pageHeight="1169" math="0" shadow="0">
      <root>
        <mxCell id="yjAgCd5IrZL8WORXm0OG-0" />
        <mxCell id="yjAgCd5IrZL8WORXm0OG-1" parent="yjAgCd5IrZL8WORXm0OG-0" />
        <mxCell id="yjAgCd5IrZL8WORXm0OG-2" style="edgeStyle=orthogonalEdgeStyle;rounded=0;orthogonalLoop=1;jettySize=auto;html=1;" parent="yjAgCd5IrZL8WORXm0OG-1" source="yjAgCd5IrZL8WORXm0OG-5" target="yjAgCd5IrZL8WORXm0OG-6" edge="1">
          <mxGeometry relative="1" as="geometry" />
        </mxCell>
        <mxCell id="yjAgCd5IrZL8WORXm0OG-3" style="edgeStyle=orthogonalEdgeStyle;rounded=0;orthogonalLoop=1;jettySize=auto;html=1;entryX=0;entryY=0.5;entryDx=0;entryDy=0;" parent="yjAgCd5IrZL8WORXm0OG-1" source="yjAgCd5IrZL8WORXm0OG-5" target="yjAgCd5IrZL8WORXm0OG-9" edge="1">
          <mxGeometry relative="1" as="geometry" />
        </mxCell>
        <mxCell id="yjAgCd5IrZL8WORXm0OG-4" style="edgeStyle=orthogonalEdgeStyle;rounded=0;orthogonalLoop=1;jettySize=auto;html=1;entryX=0;entryY=0.5;entryDx=0;entryDy=0;" parent="yjAgCd5IrZL8WORXm0OG-1" source="yjAgCd5IrZL8WORXm0OG-5" target="yjAgCd5IrZL8WORXm0OG-10" edge="1">
          <mxGeometry relative="1" as="geometry" />
        </mxCell>
        <mxCell id="yjAgCd5IrZL8WORXm0OG-5" value="管理者" style="shape=umlActor;verticalLabelPosition=bottom;verticalAlign=top;html=1;outlineConnect=0;" parent="yjAgCd5IrZL8WORXm0OG-1" vertex="1">
          <mxGeometry x="250" y="100" width="30" height="60" as="geometry" />
        </mxCell>
        <mxCell id="yjAgCd5IrZL8WORXm0OG-6" value="登録" style="ellipse;whiteSpace=wrap;html=1;" parent="yjAgCd5IrZL8WORXm0OG-1" vertex="1">
          <mxGeometry x="510" y="90" width="120" height="80" as="geometry" />
        </mxCell>
        <mxCell id="yjAgCd5IrZL8WORXm0OG-7" value="科目項目管理" style="shape=umlFrame;whiteSpace=wrap;html=1;pointerEvents=0;width=110;height=40;" parent="yjAgCd5IrZL8WORXm0OG-1" vertex="1">
          <mxGeometry x="400" y="70" width="340" height="360" as="geometry" />
        </mxCell>
        <mxCell id="yjAgCd5IrZL8WORXm0OG-8" style="edgeStyle=orthogonalEdgeStyle;rounded=0;orthogonalLoop=1;jettySize=auto;html=1;exitX=0.5;exitY=1;exitDx=0;exitDy=0;" parent="yjAgCd5IrZL8WORXm0OG-1" source="yjAgCd5IrZL8WORXm0OG-6" target="yjAgCd5IrZL8WORXm0OG-6" edge="1">
          <mxGeometry relative="1" as="geometry" />
        </mxCell>
        <mxCell id="yjAgCd5IrZL8WORXm0OG-9" value="変更" style="ellipse;whiteSpace=wrap;html=1;" parent="yjAgCd5IrZL8WORXm0OG-1" vertex="1">
          <mxGeometry x="510" y="200" width="120" height="80" as="geometry" />
        </mxCell>
        <mxCell id="yjAgCd5IrZL8WORXm0OG-10" value="削除" style="ellipse;whiteSpace=wrap;html=1;" parent="yjAgCd5IrZL8WORXm0OG-1" vertex="1">
          <mxGeometry x="510" y="300" width="120" height="80" as="geometry" />
        </mxCell>
      </root>
    </mxGraphModel>
  </diagram>
  <diagram id="RkyGoZtfuuAa3u9lz2iM" name="科目管理">
    <mxGraphModel grid="1" page="1" gridSize="10" guides="1" tooltips="1" connect="1" arrows="1" fold="1" pageScale="1" pageWidth="827" pageHeight="1169" math="0" shadow="0">
      <root>
        <mxCell id="0" />
        <mxCell id="1" parent="0" />
        <mxCell id="10D9w2BkwC-8ymYzoiql-1" style="edgeStyle=orthogonalEdgeStyle;rounded=0;orthogonalLoop=1;jettySize=auto;html=1;" parent="1" source="10D9w2BkwC-8ymYzoiql-4" target="10D9w2BkwC-8ymYzoiql-5" edge="1">
          <mxGeometry relative="1" as="geometry" />
        </mxCell>
        <mxCell id="10D9w2BkwC-8ymYzoiql-2" style="edgeStyle=orthogonalEdgeStyle;rounded=0;orthogonalLoop=1;jettySize=auto;html=1;entryX=0;entryY=0.5;entryDx=0;entryDy=0;" parent="1" source="10D9w2BkwC-8ymYzoiql-4" target="10D9w2BkwC-8ymYzoiql-8" edge="1">
          <mxGeometry relative="1" as="geometry" />
        </mxCell>
        <mxCell id="10D9w2BkwC-8ymYzoiql-3" style="edgeStyle=orthogonalEdgeStyle;rounded=0;orthogonalLoop=1;jettySize=auto;html=1;entryX=0;entryY=0.5;entryDx=0;entryDy=0;" parent="1" source="10D9w2BkwC-8ymYzoiql-4" target="10D9w2BkwC-8ymYzoiql-9" edge="1">
          <mxGeometry relative="1" as="geometry" />
        </mxCell>
        <mxCell id="10D9w2BkwC-8ymYzoiql-4" value="教員" style="shape=umlActor;verticalLabelPosition=bottom;verticalAlign=top;html=1;outlineConnect=0;" parent="1" vertex="1">
          <mxGeometry x="250" y="110" width="30" height="60" as="geometry" />
        </mxCell>
        <mxCell id="10D9w2BkwC-8ymYzoiql-5" value="登録" style="ellipse;whiteSpace=wrap;html=1;" parent="1" vertex="1">
          <mxGeometry x="510" y="90" width="120" height="80" as="geometry" />
        </mxCell>
        <mxCell id="10D9w2BkwC-8ymYzoiql-6" value="科目管理" style="shape=umlFrame;whiteSpace=wrap;html=1;pointerEvents=0;width=110;height=40;" parent="1" vertex="1">
          <mxGeometry x="400" y="70" width="340" height="360" as="geometry" />
        </mxCell>
        <mxCell id="10D9w2BkwC-8ymYzoiql-7" style="edgeStyle=orthogonalEdgeStyle;rounded=0;orthogonalLoop=1;jettySize=auto;html=1;exitX=0.5;exitY=1;exitDx=0;exitDy=0;" parent="1" source="10D9w2BkwC-8ymYzoiql-5" target="10D9w2BkwC-8ymYzoiql-5" edge="1">
          <mxGeometry relative="1" as="geometry" />
        </mxCell>
        <mxCell id="10D9w2BkwC-8ymYzoiql-8" value="変更" style="ellipse;whiteSpace=wrap;html=1;" parent="1" vertex="1">
          <mxGeometry x="510" y="180" width="120" height="80" as="geometry" />
        </mxCell>
        <mxCell id="10D9w2BkwC-8ymYzoiql-9" value="削除" style="ellipse;whiteSpace=wrap;html=1;" parent="1" vertex="1">
          <mxGeometry x="510" y="300" width="120" height="80" as="geometry" />
        </mxCell>
      </root>
    </mxGraphModel>
  </diagram>
  <diagram name="教室項目管理" id="78lCykl9dkofpqL9c1IJ">
    <mxGraphModel grid="1" page="1" gridSize="10" guides="1" tooltips="1" connect="1" arrows="1" fold="1" pageScale="1" pageWidth="827" pageHeight="1169" math="0" shadow="0">
      <root>
        <mxCell id="5wOZt959zI8otXPBrMpj-0" />
        <mxCell id="5wOZt959zI8otXPBrMpj-1" parent="5wOZt959zI8otXPBrMpj-0" />
        <mxCell id="5wOZt959zI8otXPBrMpj-2" style="edgeStyle=orthogonalEdgeStyle;rounded=0;orthogonalLoop=1;jettySize=auto;html=1;" parent="5wOZt959zI8otXPBrMpj-1" source="5wOZt959zI8otXPBrMpj-5" target="5wOZt959zI8otXPBrMpj-6" edge="1">
          <mxGeometry relative="1" as="geometry" />
        </mxCell>
        <mxCell id="5wOZt959zI8otXPBrMpj-3" style="edgeStyle=orthogonalEdgeStyle;rounded=0;orthogonalLoop=1;jettySize=auto;html=1;entryX=0;entryY=0.5;entryDx=0;entryDy=0;" parent="5wOZt959zI8otXPBrMpj-1" source="5wOZt959zI8otXPBrMpj-5" target="5wOZt959zI8otXPBrMpj-9" edge="1">
          <mxGeometry relative="1" as="geometry" />
        </mxCell>
        <mxCell id="5wOZt959zI8otXPBrMpj-4" style="edgeStyle=orthogonalEdgeStyle;rounded=0;orthogonalLoop=1;jettySize=auto;html=1;entryX=0;entryY=0.5;entryDx=0;entryDy=0;" parent="5wOZt959zI8otXPBrMpj-1" source="5wOZt959zI8otXPBrMpj-5" target="5wOZt959zI8otXPBrMpj-10" edge="1">
          <mxGeometry relative="1" as="geometry" />
        </mxCell>
        <mxCell id="5wOZt959zI8otXPBrMpj-5" value="管理者" style="shape=umlActor;verticalLabelPosition=bottom;verticalAlign=top;html=1;outlineConnect=0;" parent="5wOZt959zI8otXPBrMpj-1" vertex="1">
          <mxGeometry x="250" y="100" width="30" height="60" as="geometry" />
        </mxCell>
        <mxCell id="5wOZt959zI8otXPBrMpj-6" value="登録" style="ellipse;whiteSpace=wrap;html=1;" parent="5wOZt959zI8otXPBrMpj-1" vertex="1">
          <mxGeometry x="510" y="90" width="120" height="80" as="geometry" />
        </mxCell>
        <mxCell id="5wOZt959zI8otXPBrMpj-7" value="教室項目管理" style="shape=umlFrame;whiteSpace=wrap;html=1;pointerEvents=0;width=110;height=40;" parent="5wOZt959zI8otXPBrMpj-1" vertex="1">
          <mxGeometry x="400" y="70" width="340" height="360" as="geometry" />
        </mxCell>
        <mxCell id="5wOZt959zI8otXPBrMpj-8" style="edgeStyle=orthogonalEdgeStyle;rounded=0;orthogonalLoop=1;jettySize=auto;html=1;exitX=0.5;exitY=1;exitDx=0;exitDy=0;" parent="5wOZt959zI8otXPBrMpj-1" source="5wOZt959zI8otXPBrMpj-6" target="5wOZt959zI8otXPBrMpj-6" edge="1">
          <mxGeometry relative="1" as="geometry" />
        </mxCell>
        <mxCell id="5wOZt959zI8otXPBrMpj-9" value="変更" style="ellipse;whiteSpace=wrap;html=1;" parent="5wOZt959zI8otXPBrMpj-1" vertex="1">
          <mxGeometry x="510" y="200" width="120" height="80" as="geometry" />
        </mxCell>
        <mxCell id="5wOZt959zI8otXPBrMpj-10" value="削除" style="ellipse;whiteSpace=wrap;html=1;" parent="5wOZt959zI8otXPBrMpj-1" vertex="1">
          <mxGeometry x="510" y="300" width="120" height="80" as="geometry" />
        </mxCell>
      </root>
    </mxGraphModel>
  </diagram>
  <diagram name="教室管理" id="vXHqRJYHVMLGAyS6-45V">
    <mxGraphModel grid="1" page="1" gridSize="10" guides="1" tooltips="1" connect="1" arrows="1" fold="1" pageScale="1" pageWidth="827" pageHeight="1169" math="0" shadow="0">
      <root>
        <mxCell id="xtDePkmMf4IRYkHHyMY4-0" />
        <mxCell id="xtDePkmMf4IRYkHHyMY4-1" parent="xtDePkmMf4IRYkHHyMY4-0" />
        <mxCell id="xtDePkmMf4IRYkHHyMY4-2" style="edgeStyle=orthogonalEdgeStyle;rounded=0;orthogonalLoop=1;jettySize=auto;html=1;" parent="xtDePkmMf4IRYkHHyMY4-1" source="xtDePkmMf4IRYkHHyMY4-5" target="xtDePkmMf4IRYkHHyMY4-6" edge="1">
          <mxGeometry relative="1" as="geometry" />
        </mxCell>
        <mxCell id="xtDePkmMf4IRYkHHyMY4-3" style="edgeStyle=orthogonalEdgeStyle;rounded=0;orthogonalLoop=1;jettySize=auto;html=1;entryX=0;entryY=0.5;entryDx=0;entryDy=0;" parent="xtDePkmMf4IRYkHHyMY4-1" source="xtDePkmMf4IRYkHHyMY4-5" target="xtDePkmMf4IRYkHHyMY4-9" edge="1">
          <mxGeometry relative="1" as="geometry" />
        </mxCell>
        <mxCell id="xtDePkmMf4IRYkHHyMY4-4" style="edgeStyle=orthogonalEdgeStyle;rounded=0;orthogonalLoop=1;jettySize=auto;html=1;entryX=0;entryY=0.5;entryDx=0;entryDy=0;" parent="xtDePkmMf4IRYkHHyMY4-1" source="xtDePkmMf4IRYkHHyMY4-5" target="xtDePkmMf4IRYkHHyMY4-10" edge="1">
          <mxGeometry relative="1" as="geometry" />
        </mxCell>
        <mxCell id="xtDePkmMf4IRYkHHyMY4-5" value="教員" style="shape=umlActor;verticalLabelPosition=bottom;verticalAlign=top;html=1;outlineConnect=0;" parent="xtDePkmMf4IRYkHHyMY4-1" vertex="1">
          <mxGeometry x="250" y="110" width="30" height="60" as="geometry" />
        </mxCell>
        <mxCell id="xtDePkmMf4IRYkHHyMY4-6" value="登録" style="ellipse;whiteSpace=wrap;html=1;" parent="xtDePkmMf4IRYkHHyMY4-1" vertex="1">
          <mxGeometry x="510" y="90" width="120" height="80" as="geometry" />
        </mxCell>
        <mxCell id="xtDePkmMf4IRYkHHyMY4-7" value="教室管理" style="shape=umlFrame;whiteSpace=wrap;html=1;pointerEvents=0;width=110;height=40;" parent="xtDePkmMf4IRYkHHyMY4-1" vertex="1">
          <mxGeometry x="400" y="70" width="340" height="360" as="geometry" />
        </mxCell>
        <mxCell id="xtDePkmMf4IRYkHHyMY4-8" style="edgeStyle=orthogonalEdgeStyle;rounded=0;orthogonalLoop=1;jettySize=auto;html=1;exitX=0.5;exitY=1;exitDx=0;exitDy=0;" parent="xtDePkmMf4IRYkHHyMY4-1" source="xtDePkmMf4IRYkHHyMY4-6" target="xtDePkmMf4IRYkHHyMY4-6" edge="1">
          <mxGeometry relative="1" as="geometry" />
        </mxCell>
        <mxCell id="xtDePkmMf4IRYkHHyMY4-9" value="変更" style="ellipse;whiteSpace=wrap;html=1;" parent="xtDePkmMf4IRYkHHyMY4-1" vertex="1">
          <mxGeometry x="510" y="180" width="120" height="80" as="geometry" />
        </mxCell>
        <mxCell id="xtDePkmMf4IRYkHHyMY4-10" value="削除" style="ellipse;whiteSpace=wrap;html=1;" parent="xtDePkmMf4IRYkHHyMY4-1" vertex="1">
          <mxGeometry x="510" y="300" width="120" height="80" as="geometry" />
        </mxCell>
      </root>
    </mxGraphModel>
  </diagram>
</mxfile>
